<svg width="24" height="24" viewBox="0 0 24 24" fill="none" xmlns="http://www.w3.org/2000/svg">
<path style="fill: #191F23" d="M11.9998 18C15.3135 18 17.9998 15.3137 17.9998 12C17.9998 8.68629 15.3135 6 11.9998 6C10.3053 6 8.77483 6.70247 7.68376 7.83209L9.12246 9.22144L4.17469 10.004L4.80644 5.05347L6.24508 6.44276C7.69985 4.93662 9.74047 4 11.9998 4C16.4181 4 19.9998 7.58172 19.9998 12C19.9998 16.4183 16.4181 20 11.9998 20C7.91954 20 4.5527 16.9453 4.06149 12.998C3.99329 12.45 4.44756 12 4.99984 12C5.55213 12 5.99111 12.4511 6.0821 12.9958C6.55645 15.8356 9.02538 18 11.9998 18Z" fill="#191F23"/>
</svg>
